<?xml version="1.0" encoding="UTF-8" standalone="no"?>
<!-- Created with Inkscape (http://www.inkscape.org/) -->

<svg
   xmlns:dc="http://purl.org/dc/elements/1.1/"
   xmlns:cc="http://creativecommons.org/ns#"
   xmlns:rdf="http://www.w3.org/1999/02/22-rdf-syntax-ns#"
   xmlns:svg="http://www.w3.org/2000/svg"
   xmlns="http://www.w3.org/2000/svg"
   xmlns:sodipodi="http://sodipodi.sourceforge.net/DTD/sodipodi-0.dtd"
   xmlns:inkscape="http://www.inkscape.org/namespaces/inkscape"
   width="243mm"
   height="81mm"
   viewBox="0 0 243 81"
   id="svg3336"
   version="1.1"
   inkscape:version="0.91 r13725"
   sodipodi:docname="CSClogo2_Black.svg"
   inkscape:export-filename="F:\Documents\Computer Science Club\CSClogo2_Black.png"
   inkscape:export-xdpi="90"
   inkscape:export-ydpi="90">
  <defs
     id="defs3338" />
  <sodipodi:namedview
     inkscape:document-units="mm"
     pagecolor="#ffffff"
     bordercolor="#666666"
     borderopacity="1.0"
     inkscape:pageopacity="0.0"
     inkscape:pageshadow="2"
     inkscape:zoom="0.61399265"
     inkscape:cx="454.63557"
     inkscape:cy="330.04288"
     inkscape:current-layer="layer1"
     id="namedview3340"
     showgrid="true"
     objecttolerance="10000"
     inkscape:snap-perpendicular="true"
     guidetolerance="10000"
     inkscape:snap-path-mask="false"
     inkscape:snap-path-clip="true"
     showguides="false"
     inkscape:window-width="1920"
     inkscape:window-height="1067"
     inkscape:window-x="1276"
     inkscape:window-y="-4"
     inkscape:window-maximized="1">
    <inkscape:grid
       type="xygrid"
       id="grid3347" />
  </sodipodi:namedview>
  <metadata
     id="metadata3342">
    <rdf:RDF>
      <cc:Work
         rdf:about="">
        <dc:format>image/svg+xml</dc:format>
        <dc:type
           rdf:resource="http://purl.org/dc/dcmitype/StillImage" />
        <dc:title></dc:title>
      </cc:Work>
    </rdf:RDF>
  </metadata>
  <g
     inkscape:label="Layer 1"
     inkscape:groupmode="layer"
     id="layer1"
     transform="translate(0,-129)">
    <path
       style="fill:#000000;fill-opacity:1;fill-rule:evenodd;stroke:#000000;stroke-width:0.28222221px;stroke-linecap:butt;stroke-linejoin:miter;stroke-opacity:1"
       d="M 37.833301,136.2644 A 35.277778,35.277778 0 0 0 2.5555233,171.54218 35.277778,35.277778 0 0 0 37.833301,206.81995 35.277778,35.277778 0 0 0 69.464237,187.06439 l -13.46233,0 a 23.988887,23.988887 0 0 1 -18.374761,8.56975 23.988887,23.988887 0 0 1 -23.988888,-23.98889 23.988887,23.988887 0 0 1 23.988888,-23.98889 23.988887,23.988887 0 0 1 18.164198,8.36359 l 13.696047,0 A 35.277778,35.277778 0 0 0 37.833301,136.2644 Z"
       id="path3363"
       inkscape:connector-curvature="0" />
    <rect
       style="fill:#000000;fill-opacity:1;fill-rule:evenodd;stroke:#000000;stroke-width:0.28222221px;stroke-linecap:butt;stroke-linejoin:miter;stroke-opacity:1"
       id="rect3371"
       width="47.977776"
       height="14.111111"
       x="39.244408"
       y="164.48683" />
    <path
       style="fill:none;fill-opacity:1;fill-rule:evenodd;stroke:#000000;stroke-width:15.12724686;stroke-linecap:butt;stroke-linejoin:miter;stroke-miterlimit:4;stroke-dasharray:none;stroke-opacity:1"
       d="m 144.85139,144.31379 -32.15062,-0.14486 c -21.207307,0.14486 -21.207307,26.82765 1.59345,26.82765 l 9.43858,0 c 21.12623,0 21.12623,28.46162 -0.43458,28.60647 L 92.076761,199.4582"
       id="path4190"
       inkscape:connector-curvature="0"
       sodipodi:nodetypes="cccccc" />
    <path
       inkscape:connector-curvature="0"
       style="fill:#000000;fill-opacity:1;fill-rule:evenodd;stroke:#000000;stroke-width:0.28222221px;stroke-linecap:butt;stroke-linejoin:miter;stroke-opacity:1"
       d="m 188.74592,136.49422 a 35.277778,35.277778 0 0 0 -35.27778,35.27778 35.277778,35.277778 0 0 0 35.27778,35.27778 35.277778,35.277778 0 0 0 31.63093,-19.75556 l -13.46233,0 a 23.988888,23.988888 0 0 1 -18.37476,8.56975 23.988888,23.988888 0 0 1 -23.98889,-23.98889 23.988888,23.988888 0 0 1 23.98889,-23.98889 23.988888,23.988888 0 0 1 18.1642,8.36359 l 13.69605,0 a 35.277778,35.277778 0 0 0 -31.65409,-19.75556 z"
       id="path3363-3" />
    <rect
       style="fill:#000000;fill-opacity:1;fill-rule:evenodd;stroke:#000000;stroke-width:0.28222221px;stroke-linecap:butt;stroke-linejoin:miter;stroke-opacity:1"
       id="rect3371-4"
       width="47.977779"
       height="14.111112"
       x="190.15703"
       y="164.71666" />
  </g>
</svg>
